<?xml version="1.0" encoding="UTF-8" standalone="no"?>
<!DOCTYPE svg PUBLIC "-//W3C//DTD SVG 1.1//EN" "http://www.w3.org/Graphics/SVG/1.1/DTD/svg11.dtd">
<svg width="100%" height="100%" viewBox="0 0 1000 1000" version="1.1" xmlns="http://www.w3.org/2000/svg" xmlns:xlink="http://www.w3.org/1999/xlink" xml:space="preserve" xmlns:serif="http://www.serif.com/" style="fill-rule:evenodd;clip-rule:evenodd;stroke-linejoin:round;stroke-miterlimit:2;">
    <path d="M720.1,249C796.8,258 855.3,305.5 883,381.2L885.8,388.8L845.4,402.5C823.2,410.1 804.8,416.3 804.4,416.4C804.1,416.4 801.9,411.1 799.6,404.5C792.4,384 783.6,369.6 769.6,355.8C756.5,342.7 740,333.6 720.1,328.2C711.3,325.9 708.8,325.6 690,325.6C667.8,325.5 660.7,326.6 644.5,332.7C601,348.8 567.8,392.7 556.6,449C550.2,481.1 550.6,524 557.5,555.5C564.5,587.1 578.9,615.3 598.4,635.8C616.8,655.1 635.1,665.8 660.5,672.2C668.4,674.2 671.9,674.5 690,674.4C708.8,674.4 711.3,674.1 720.1,671.8C740,666.4 756.5,657.3 769.6,644.2C783.6,630.4 792.4,616 799.6,595.5C801.9,588.9 804.1,583.6 804.4,583.6C804.8,583.7 823.2,589.9 845.4,597.5L885.8,611.2L883,618.8C857.7,688.1 805.7,734.6 738.6,748C722.1,751.3 710.5,752.4 689,752.4C646.9,752.4 612.3,743.4 578.7,723.6C499.7,677.1 456.6,582.5 465,473.9C470.3,405.5 496.3,347.2 540.1,305.6C573,274.3 616.5,253.8 660,249C665.2,248.5 671.1,247.8 673,247.6C678.6,246.9 710.7,247.9 720.1,249Z" style="fill:white;"/>
    <path d="M442,255L442,331L201,331L201,464L403,464L403,541L201,541L201,745L114,745L114,255L442,255Z" style="fill:white;"/>
    <g transform="matrix(0.1,0,0,-0.1,0,1000)">
        <path d="M0,10000L0,0L10000,0L10000,10000L0,10000ZM7201,7510C7968,7420 8553,6945 8830,6188L8858,6112L8454,5975C8232,5899 8048,5837 8044,5836C8041,5836 8019,5889 7996,5955C7924,6160 7836,6304 7696,6442C7565,6573 7400,6664 7201,6718C7113,6741 7088,6744 6900,6744C6678,6745 6607,6734 6445,6673C6010,6512 5678,6073 5566,5510C5502,5189 5506,4760 5575,4445C5645,4129 5789,3847 5984,3642C6168,3449 6351,3342 6605,3278C6684,3258 6719,3255 6900,3256C7088,3256 7113,3259 7201,3282C7400,3336 7565,3427 7696,3558C7836,3696 7924,3840 7996,4045C8019,4111 8041,4164 8044,4164C8048,4163 8232,4101 8454,4025L8858,3888L8830,3812C8577,3119 8057,2654 7386,2520C7221,2487 7105,2476 6890,2476C6469,2476 6123,2566 5787,2764C4997,3229 4566,4175 4650,5261C4703,5945 4963,6528 5401,6944C5730,7257 6165,7462 6600,7510C6652,7515 6711,7522 6730,7524C6786,7531 7107,7521 7201,7510ZM4420,7450L4420,6690L2010,6690L2010,5360L4030,5360L4030,4590L2010,4590L2010,2550L1140,2550L1140,7450L4420,7450Z" style="fill-rule:nonzero;"/>
    </g>
</svg>
